<?xml version="1.0" encoding="UTF-8" standalone="no"?>
<svg
   xmlns:dc="http://purl.org/dc/elements/1.1/"
   xmlns:cc="http://creativecommons.org/ns#"
   xmlns:rdf="http://www.w3.org/1999/02/22-rdf-syntax-ns#"
   xmlns:svg="http://www.w3.org/2000/svg"
   xmlns="http://www.w3.org/2000/svg"
   xmlns:xlink="http://www.w3.org/1999/xlink"
   xmlns:sodipodi="http://sodipodi.sourceforge.net/DTD/sodipodi-0.dtd"
   xmlns:inkscape="http://www.inkscape.org/namespaces/inkscape"
   width="265"
   height="230"
   version="1.1"
   id="svg70"
   sodipodi:docname="hvac.svg"
   inkscape:version="0.92.3 (2405546, 2018-03-11)"
   style="enable-background:new"><sodipodi:namedview
   pagecolor="#ffffff"
   bordercolor="#666666"
   borderopacity="1"
   objecttolerance="10"
   gridtolerance="10"
   guidetolerance="10"
   inkscape:pageopacity="0"
   inkscape:pageshadow="2"
   inkscape:window-width="1920"
   inkscape:window-height="1017"
   id="namedview72"
   showgrid="true"
   inkscape:zoom="2.681"
   inkscape:cx="156.69829"
   inkscape:cy="141.34903"
   inkscape:window-x="-8"
   inkscape:window-y="-8"
   inkscape:window-maximized="1"
   inkscape:current-layer="dataToSend"
   fit-margin-top="0"
   fit-margin-left="0"
   fit-margin-right="0"
   fit-margin-bottom="0">
  <inkscape:grid
     type="xygrid"
     id="grid3920"
     originx="-1.8310547e-006"
     originy="-1.8532715e-006" />
</sodipodi:namedview>
<metadata
   id="metadata10">image/svg+xml<rdf:RDF>
  <cc:Work
     rdf:about="">
    <dc:format>image/svg+xml</dc:format>
    <dc:type
       rdf:resource="http://purl.org/dc/dcmitype/StillImage" />
    <dc:title></dc:title>
  </cc:Work>
</rdf:RDF>
</metadata>
<defs
   id="defs24">
  <symbol
     id="svg_40"
     preserveAspectRatio="xMidYMid meet"
     viewBox="0 0 700.000000 762.000000">
    <metadata
       id="metadata12">Created by potrace 1.12, written by Peter Selinger 2001-2015</metadata>
    <g
       id="svg_11"
       transform="matrix(0.1,0,0,-0.1,0,762)"
       style="fill:#000000">
      <path
         d="m 3742,7413 c -60,-21 -93,-57 -212,-234 -57,-85 -111,-165 -121,-179 -61,-88 -329,-503 -384,-595 -20,-33 -48,-79 -63,-102 -55,-86 -132,-213 -232,-383 -57,-96 -130,-220 -163,-275 -33,-55 -126,-221 -207,-370 -81,-148 -157,-288 -170,-310 -29,-51 -140,-273 -181,-361 -17,-38 -47,-103 -66,-144 -252,-547 -383,-951 -414,-1278 -11,-117 -8,-194 16,-450 6,-56 41,-207 76,-327 11,-38 23,-83 26,-99 5,-27 -37,-71 -659,-695 C 623,1245 311,927 295,906 269,870 267,860 267,779 c 0,-82 2,-90 33,-139 42,-65 80,-93 156,-114 57,-15 66,-15 135,0 l 74,17 620,624 620,624 45,-58 c 24,-32 64,-84 87,-116 60,-80 258,-277 376,-372 222,-181 506,-324 817,-412 30,-9 75,-19 100,-23 25,-5 83,-16 130,-25 181,-34 471,-40 675,-14 249,33 434,86 662,190 37,17 84,38 103,47 71,32 385,247 449,307 36,34 76,70 89,81 34,28 191,207 258,293 122,160 253,402 313,581 36,105 48,144 86,280 38,135 67,467 54,605 -12,124 -48,315 -78,420 -41,140 -58,195 -94,295 -41,118 -151,384 -214,519 -19,42 -52,114 -73,161 -20,47 -65,137 -98,200 -34,63 -103,197 -154,297 l -92,182 646,648 c 356,356 662,668 680,692 30,42 32,49 33,130 0,83 -1,88 -37,143 -39,58 -89,95 -142,105 -17,3 -39,10 -48,14 -25,13 -136,-18 -183,-51 -22,-16 -301,-290 -620,-609 -334,-334 -588,-581 -598,-581 -10,0 -20,7 -24,17 -4,9 -34,62 -68,117 -34,56 -64,108 -68,116 -47,106 -846,1338 -903,1392 -67,63 -180,84 -272,51 z m 129,-771 c 10,-15 89,-139 178,-277 88,-137 170,-266 181,-285 11,-19 29,-48 39,-65 144,-234 405,-675 409,-689 4,-15 -272,-295 -1289,-1307 -712,-709 -1297,-1288 -1300,-1289 -11,0 -18,46 -30,200 -13,153 -11,174 37,421 22,118 144,477 217,640 35,80 75,170 88,199 56,127 304,619 394,780 54,96 121,218 150,270 198,358 593,1004 853,1393 29,44 51,47 73,9 z M 5112,4522 c 81,-163 173,-355 204,-427 31,-71 68,-157 83,-190 68,-148 148,-388 186,-555 9,-41 21,-88 26,-104 5,-16 9,-100 9,-186 0,-233 -38,-439 -117,-640 -65,-164 -139,-294 -257,-453 -63,-83 -243,-263 -331,-329 -233,-176 -556,-307 -857,-349 -93,-13 -412,-6 -498,10 -205,40 -381,99 -527,176 -213,112 -399,255 -526,403 -88,103 -207,269 -207,288 0,20 2632,2655 2650,2654 9,-1 70,-111 162,-298 z"
         id="svg_36"
         inkscape:connector-curvature="0" />
    </g>
  </symbol>
  <symbol
     id="svg_43"
     preserveAspectRatio="xMidYMid meet"
     viewBox="0 0 700.000000 696.000000">
    <metadata
       id="metadata17">Created by potrace 1.12, written by Peter Selinger 2001-2015</metadata>
    <g
       id="svg_37"
       transform="matrix(0.1,0,0,-0.1,0,696)"
       style="fill:#000000">
      <path
         d="m 2223,6540 c -51,-21 -55,-41 -51,-282 4,-188 8,-235 26,-300 68,-248 161,-455 397,-878 59,-107 160,-287 223,-400 62,-113 116,-221 119,-240 6,-44 -17,-66 -102,-99 -33,-13 -73,-30 -90,-37 -16,-7 -59,-24 -95,-39 -36,-14 -74,-30 -85,-35 -11,-5 -48,-21 -83,-36 -66,-28 -117,-77 -128,-120 -4,-14 -4,-46 -2,-72 4,-41 18,-66 96,-174 51,-70 92,-133 92,-142 0,-9 -38,-53 -85,-99 -100,-100 -113,-124 -88,-176 14,-27 40,-49 106,-89 57,-36 87,-60 87,-72 0,-10 -19,-40 -43,-66 -24,-27 -71,-82 -105,-123 l -62,-75 v -98 c 0,-328 -138,-554 -365,-598 -33,-6 -168,-13 -300,-16 -132,-2 -257,-6 -278,-9 -103,-14 -202,-112 -240,-236 -15,-48 -17,-105 -17,-411 v -354 l 29,-28 c 32,-30 99,-39 127,-16 37,31 39,50 44,410 4,318 7,359 23,383 39,60 46,61 352,68 311,7 347,13 469,77 82,43 186,143 235,225 67,114 111,283 111,427 0,92 7,106 123,242 111,128 131,165 125,229 -6,57 -39,105 -100,146 -58,39 -59,57 -8,101 59,49 100,109 100,144 0,34 -8,47 -117,196 -46,62 -83,121 -83,132 0,20 14,28 120,70 330,132 372,157 415,244 24,49 27,65 23,123 -3,40 -14,87 -26,113 -27,56 -88,169 -350,640 -330,593 -402,796 -402,1133 0,90 -4,167 -10,178 -12,22 -61,49 -87,48 -10,0 -28,-4 -40,-9 z"
         id="svg_46"
         inkscape:connector-curvature="0" />
      <path
         d="m 1644,5571 c -116,-29 -181,-175 -121,-273 84,-139 264,-137 345,4 44,79 19,180 -60,240 -37,28 -113,41 -164,29 z"
         id="svg_47"
         inkscape:connector-curvature="0" />
      <path
         d="m 3837,4070 c -100,-26 -196,-102 -245,-193 l -27,-52 -3,-1278 -2,-1278 31,-72 c 17,-40 45,-101 61,-137 16,-36 38,-83 48,-105 10,-22 31,-69 47,-105 16,-36 59,-132 94,-214 74,-171 107,-216 162,-216 24,0 46,9 66,26 45,38 42,78 -18,210 -86,194 -92,208 -111,249 -11,22 -57,127 -105,234 l -85,194 v 1199 c 0,1300 -3,1237 53,1296 74,79 222,61 274,-33 l 23,-40 v -899 -898 l 34,-34 c 43,-43 79,-44 126,-5 l 35,29 5,258 c 5,236 7,262 25,293 34,58 68,76 140,76 73,0 109,-20 137,-76 16,-30 18,-65 18,-274 0,-223 2,-242 20,-273 22,-36 72,-62 102,-54 11,2 35,19 54,37 l 34,32 v 205 205 l 29,41 c 34,47 84,67 144,59 50,-7 85,-32 114,-83 21,-37 23,-51 23,-237 v -199 l 31,-29 c 56,-52 134,-33 165,40 12,28 14,58 9,141 -8,138 5,186 60,217 79,45 159,22 212,-58 l 28,-43 v -465 c 0,-513 5,-465 -60,-606 -7,-16 -32,-75 -55,-130 -23,-55 -45,-109 -50,-120 -13,-27 -98,-238 -122,-300 -11,-27 -24,-54 -29,-60 -20,-20 -9,-71 22,-101 24,-23 39,-29 76,-29 39,0 49,4 74,35 16,19 29,38 29,43 0,4 18,52 41,105 22,53 54,131 71,172 17,41 39,93 48,115 10,22 49,114 86,205 l 69,165 3,492 2,491 -34,76 c -42,92 -106,163 -182,201 -49,25 -66,28 -144,28 -59,0 -105,-7 -139,-18 l -49,-18 -70,64 c -88,81 -154,109 -255,109 -58,-1 -85,-6 -137,-30 l -65,-29 -50,48 c -28,26 -62,54 -75,62 -89,49 -205,63 -280,33 -73,-30 -70,-53 -70,492 0,319 -4,501 -11,536 -23,109 -84,187 -188,242 -59,31 -82,37 -148,41 -43,2 -95,0 -116,-5 z"
         id="svg_48"
         inkscape:connector-curvature="0" />
    </g>
  </symbol>
  <filter
     inkscape:collect="always"
     style="color-interpolation-filters:sRGB"
     id="filter3204">
    <feBlend
       inkscape:collect="always"
       mode="normal"
       in2="BackgroundImage"
       id="feBlend3206" />
  </filter>
</defs>








21°c
 <rect
   style="opacity:0.919;fill:#b3b3b3;stroke-width:2.03623629"
   id="cacheButton-3"
   width="265"
   height="230"
   x="0"
   y="0"
   ry="14.603275" />
<rect
   style="opacity:1;fill:#e3dbdb;stroke-width:1.33570004"
   id="rect1020-0"
   width="250"
   height="66.669998"
   x="7.3099976"
   y="160.84"
   ry="3.51" />
<rect
   style="opacity:1;fill:#e3dbdb;stroke-width:2.07680011"
   id="rect1020"
   width="260"
   height="155"
   x="2.3099976"
   y="3.840004"
   ry="8.1599998" />
<rect
   style="display:inline;opacity:0.73000004;fill:#cccccc;stroke-width:2.30679989"
   rx="49.849998"
   y="64.230003"
   x="6.9759979"
   width="251.10001"
   ry="49.84"
   id="svg_1"
   height="84.489998" />
<g
   inkscape:label="#Ico_TempMoins"
   id="Ico_TempMoins"
   transform="matrix(1.158,0,0,1.143,17.219998,25.470006)">
  <ellipse
     cx="92.220001"
     cy="85.629997"
     id="svg_3"
     rx="17.389999"
     ry="20.809999"
     style="opacity:0.43200001;fill:#808080;stroke-width:0.2624" />
  <path
     d="m 91.88,101 -10,-23.84 h 20.02 z"
     id="svg_4"
     inkscape:connector-curvature="0"
     style="fill:#241c1c;stroke-width:0.26460001" />
</g>
<g
   inkscape:label="#Ico_TempPlus"
   id="Ico_TempPlus"
   transform="matrix(1.158,0,0,1.122,36.859998,27.120006)">
  <ellipse
     cx="130.7"
     cy="86.010002"
     id="svg_5"
     rx="17.389999"
     ry="20.809999"
     style="opacity:0.43200001;fill:#808080;stroke-width:0.2624" />
  <path
     d="m 131.1,74.43 10,23.84 h -20 z"
     id="svg_6"
     inkscape:connector-curvature="0"
     style="fill:#241c1c;stroke-width:0.26460001" />
</g>
<g
   inkscape:label="#Ico_OnOff"
   id="Ico_OnOff"
   transform="matrix(1.584,0,0,1.706,-13.110002,-39.329991)">
  <ellipse
     cx="42.43"
     cy="85.860001"
     id="svg_7"
     rx="20.6"
     ry="20.809999"
     style="opacity:0.956;fill:#ff5555;stroke-width:0.28560001" />
  <g
     id="svg_8"
     transform="matrix(0.0684,0,0,-0.064,18.54,77.75)">
    <path
       d="m 317,74.61 c -13,-14 -17,-38 -17,-103 0,-90.01 8,-109.01 45,-109.01 37,0 45,19 45,110.01 0,72 -3,90 -18,103 -24,22 -35,21 -55,-1 z"
       id="svg_9"
       inkscape:connector-curvature="0" />
    <path
       d="M 188,5.609 C 143,-43.39 127,-85.39 132,-148.4 c 6,-77 40,-128 109,-163 102,-50 229,-21 287,66 36,55 42,139 14,194.01 -39,77 -98,106 -125,62 -9,-13.001 -3,-25 26,-57 30,-33 37,-49 37,-81.01 0,-81 -52,-132 -135,-132 -122,0 -178,119 -100,212.01 39,45.999 40,50.999 23,68 -20,20 -53,14 -80,-15.001 z"
       id="svg_10"
       inkscape:connector-curvature="0" />
  </g>
</g>
<g
   inkscape:label="Mode_Hot"
   transform="matrix(0.5328,0,0,0.5326,23.299998,7.9100058)"
   id="Mode_Hot">
  <path
     inkscape:connector-curvature="0"
     id="svg_13"
     d="m 38.09,37.94 c -5.94,5.95 -5.94,15.63 0.01,21.58 5.94,5.95 15.62,5.94 21.57,0 5.95,-5.95 5.95,-15.63 0,-21.58 -5.95,-5.95 -15.63,-5.95 -21.58,0 z" />
  <rect
     y="23.629999"
     x="63.200001"
     width="14.28"
     transform="matrix(-0.7071,0.7071,-0.7071,-0.7071,139.3,-3.398)"
     id="svg_14"
     height="7.0240002" />
  <rect
     y="24.93"
     x="64.5"
     width="11.68"
     transform="matrix(0.7071,-0.7071,0.7071,0.7071,1.407,57.69)"
     id="svg_15"
     height="4.4239998" />
  <polygon
     points="24.1,78.36 19.13,73.39 29.23,63.29 34.2,68.26 "
     id="svg_16" />
  <rect
     y="68.610001"
     x="20.82"
     width="11.68"
     transform="matrix(0.7071,-0.7071,0.7071,0.7071,-42.27,39.59)"
     id="svg_17"
     height="4.4239998" />
  <rect
     y="19.75"
     x="23.15"
     width="7.027"
     transform="matrix(-0.707,0.7072,-0.7072,-0.707,64.53,27.06)"
     id="svg_18"
     height="14.28" />
  <rect
     y="24.68"
     x="20.82"
     width="11.68"
     transform="matrix(0.7071,0.7071,-0.7071,0.7071,26.83,-10.97)"
     id="svg_19"
     height="4.4260001" />
  <rect
     y="63.810001"
     x="67.209999"
     width="7.0250001"
     transform="matrix(-0.7071,0.7071,-0.7071,-0.7071,170.9,71.12)"
     id="svg_20"
     height="14.28" />
  <rect
     y="68.739998"
     x="64.879997"
     width="11.68"
     transform="matrix(0.7071,0.7071,-0.7071,0.7071,70.88,-29.22)"
     id="svg_21"
     height="4.4250002" />
  <rect
     y="8.1879997"
     x="44.959999"
     width="7.0250001"
     id="svg_22"
     height="17.110001" />
  <rect
     y="9.4879999"
     x="46.259998"
     width="4.4229999"
     id="svg_23"
     height="14.51" />
  <rect
     y="72.790001"
     x="44.959999"
     width="7.0250001"
     id="svg_24"
     height="17.110001" />
  <rect
     y="74.089996"
     x="46.259998"
     width="4.4239998"
     id="svg_25"
     height="14.52" />
  <rect
     y="45.360001"
     x="7.4380002"
     width="17.110001"
     id="svg_26"
     height="7.0250001" />
  <rect
     y="46.66"
     x="8.7379999"
     width="14.51"
     id="svg_27"
     height="4.4250002" />
  <rect
     y="45.360001"
     x="72.57"
     width="17.110001"
     id="svg_28"
     height="7.0250001" />
  <rect
     y="46.66"
     x="73.870003"
     width="14.51"
     id="svg_29"
     height="4.4250002" />
</g>
<path
   onclick="=&quot;#&quot;"
   inkscape:label="Mode_Cold"
   style="fill:#111918;stroke-width:1.7737"
   inkscape:connector-curvature="0"
   id="Mode_Cold"
   d="m 70.209998,39.540006 -5.73,1.6 -3.26,-1.96 v -10.3 l 3.26,-1.95 5.73,1.6 0.91,-3.5 -4.76,-1.32 1.28,-4.94 -3.36,-0.94 -1.54,5.96 -3.26,1.96 -8.57,-5.14 v -3.91 l 4.2,-4.37 -2.46,-2.5600002 -3.48,3.6200002 -3.48,-3.6200002 -2.46,2.5600002 4.2,4.37 v 3.91 l -8.57,5.15 -3.26,-1.96 -1.53,-5.97 -3.36,0.94 1.27,4.94 -4.75,1.33 0.9,3.49 5.73,-1.6 3.26,1.96 v 10.29 l -3.26,1.96 -5.73,-1.6 -0.9,3.5 4.75,1.32 -1.27,4.94 3.36,0.94 1.53,-5.96 3.26,-1.96 8.57,5.15 v 3.91 l -4.2,4.36 2.46,2.56 3.48,-3.62 3.48,3.62 2.46,-2.56 -4.2,-4.36 v -3.91 l 8.57,-5.15 3.26,1.95 1.53,5.97 3.36,-0.94 -1.27,-4.94 4.75,-1.32 z m -12.47,-2.45 -5.09,-3.05 5.09,-3.06 z m -1.74,-9.25 -5.09,3.06 v -6.11 z m -8.57,-3.05 v 6.11 l -5.09,-3.06 z m -6.83,6.19 5.09,3.06 -5.09,3.05 z m 1.74,9.25 5.09,-3.06 v 6.12 z m 8.57,3.06 v -6.12 l 5.09,3.06 z"
   class="linesandangles_een" />
<path
   style="fill:#000000;stroke-width:2.01329994"
   inkscape:connector-curvature="0"
   inkscape:label="Mode_Auto"
   id="Mode_Auto"
   d="m 43.029998,38.440006 -5.28,-8.75 h -10.62 l 4.32,2.37 -2.67,4.38 c -0.23,0.4 -0.35,0.81 -0.35,1.24 0,0.43 0.12,0.85 0.35,1.25 l 4.2,6.97 c 0.19,-0.51 0.38,-0.94 0.57,-1.3 l 5.22,-8.54 z m -7.89,7.02 c -0.31,0.47 -0.46,0.98 -0.46,1.52 0,0.82 0.31,1.53 0.94,2.1 0.62,0.58 1.37,0.87 2.24,0.87 h 10.45 v -8.05 h -11.01 c -0.08,0.14 -0.37,0.61 -0.86,1.4 z m 14.14,-19.93 h 10.56 l 5.34,-8.76 -4.31,2.38 -2.68,-4.38 c -0.49,-0.82 -1.24,-1.24 -2.27,-1.24 h -8.4 c 0.34,0.36 0.62,0.72 0.85,1.08 l 5.17,8.54 -0.85,0.48 z m -5.17,-11.57 c -1.21,0 -2.12,0.51 -2.73,1.52 l -5.28,8.64 c 2.01,1.12 4.45,2.45 7.33,4 1.7,-2.77 3.54,-5.8 5.51,-9.08 l -2.1,-3.56 c -0.61,-1.01 -1.52,-1.52 -2.73,-1.52 z m 13.57,27.83 v -4.7 l -5.28,8.75 5.28,8.7 v -4.7 h 5.29 c 1.02,0 1.79,-0.41 2.32,-1.24 l 4.21,-6.97 c -0.57,0.14 -1.04,0.21 -1.42,0.21 z m 7.84,-14.81 c -0.19,0.11 -2.63,1.45 -7.33,4 2.35,3.86 4.21,6.9 5.57,9.13 h 4.26 c 1.25,0 2.18,-0.5 2.78,-1.51 0.57,-0.97 0.55,-1.96 -0.05,-2.97 z" />
<use
   height="100%"
   width="100%"
   inkscape:label="Mode_Dry"
   y="675.29999"
   xlink:href="#svg_40"
   x="189.39999"
   transform="matrix(0.1871,0,0,0.1625,-9.1400018,-92.629991)"
   id="Mode_Dry" />
<use
   inkscape:label="#Ico_Silent"
   height="100%"
   width="100%"
   y="-185.7"
   xlink:href="#svg_43"
   x="688.90002"
   transform="matrix(-0.2438,0,0,0.2266,337.91,54.140006)"
   id="Ico_Silent" />
<rect
   style="opacity:0.956;fill:#241f1c;stroke-width:1.68190002"
   id="Fan_Speed4"
   width="10.58"
   height="47.240002"
   x="155.91"
   y="7.5700073"
   ry="5.3860002"
   rx="5.3870001"
   inkscape:label="#Fan_Speed4" />
<rect
   style="opacity:0.956;fill:#241f1c;stroke-width:1.52390003"
   id="Fan_Speed3"
   width="10.58"
   height="38.779999"
   x="145.31"
   y="16.030006"
   ry="5.3860002"
   rx="5.3870001"
   inkscape:label="#Fan_Speed3" />
<rect
   style="opacity:0.956;fill:#241f1c;stroke-width:1.18040001"
   id="Fan_Speed2"
   width="10.58"
   height="23.27"
   x="134.70999"
   y="31.540005"
   ry="3.2309999"
   rx="3.2320001"
   inkscape:label="#Fan_Speed2" />
<rect
   style="opacity:0.956;fill:#241f1c;stroke-width:0.81160003"
   id="Fan_Speed1"
   width="9.1680002"
   height="12.69"
   x="125.51"
   y="42.120003"
   ry="1.9579999"
   rx="1.959"
   inkscape:label="#Fan_Speed1" />
<g
   id="Ico_Fan_Auto"
   transform="matrix(2.014,0,0,2.013,-74.730002,-67.129991)"
   inkscape:label="#Ico_Fan_Auto">
  <path
     style="display:inline;stroke-width:0.0027"
     d="m 111.5,42.75 c 0,0.29 -0.3,1.34 0.2,1.33 1.4,-0.01 2.6,0.78 3.4,1.82 0.5,0.62 0.8,1.42 0.9,2.22 0,0.73 0,1.46 -0.2,2.15 -0.3,1.08 -1.2,1.94 -2.1,2.54 -0.9,0.5 -1.9,0.78 -2.9,0.5 -1.1,-0.44 0.5,-0.98 0.8,-1.48 0.6,-0.54 0.9,-1.31 1,-2.08 0,-0.76 0,-1.55 -0.3,-2.28 -0.2,-0.84 -0.6,-1.64 -1.2,-2.3 -0.8,-0.94 -1.9,-1.62 -3.1,-1.94 -1.1,-0.19 -2.3,-0.19 -3.3,0.2 -1,0.35 -1.9,0.96 -2.6,1.78 -0.7,0.79 -1.1,1.79 -1.3,2.8 -0.1,0.94 -0.1,1.93 0.2,2.86 0,0.66 0.5,1.41 1.2,0.83 0.9,-0.26 -0.3,-1.33 -0.1,-1.97 -0.1,-0.72 -0.1,-1.47 0.2,-2.13 0.4,-1.16 1.3,-2.18 2.4,-2.73 0.7,-0.29 1.5,-0.41 2.2,-0.44 0.6,0.09 1.8,0.2 1.7,0.87 -0.6,0.31 -1.3,0.54 -1.9,0.95 -1,0.7 -2.1,1.54 -2.6,2.73 -0.3,0.68 -0.6,1.41 -0.7,2.18 -0.1,0.95 0,1.94 0.3,2.84 0.5,1.22 1.4,2.23 2.4,2.99 0.7,0.42 1.4,0.78 2.2,0.89 0.9,0.18 1.8,-0.02 2.6,-0.16 0.8,-0.26 1.6,-0.62 2.2,-1.28 0.2,-0.37 -0.7,-0.75 -0.9,-0.96 -0.4,0.5 -1.1,0.84 -1.7,0.97 -0.8,0.31 -1.7,0.11 -2.4,-0.07 -1.5,-0.43 -2.7,-1.56 -3.1,-2.99 -0.3,-0.74 -0.2,-1.58 -0.2,-2.37 0.1,-0.82 0.9,-0.54 1,0.13 0.7,1.19 1.6,2.3 2.9,2.98 0.7,0.42 1.5,0.67 2.3,0.68 1,0.03 2,-0.04 2.8,-0.51 1,-0.43 1.9,-1.23 2.5,-2.17 0.5,-0.68 0.8,-1.41 1,-2.21 0.1,-0.55 0,-1.14 0,-1.71 -0.2,-0.73 -0.3,-1.5 -0.6,-2.17 -0.6,-1.1 -1.5,-2 -2.5,-2.61 -0.7,-0.39 -1.5,-0.61 -2.3,-0.68 -0.1,-0.01 -0.2,-0.02 -0.4,0 z m -2.2,4.18 c 0.8,0.08 1.5,0.75 1.8,1.51 0.2,0.75 0.2,1.62 -0.3,2.25 -0.5,0.63 -1.2,1.03 -2,0.96 -0.5,-0.01 -1,-0.31 -1.4,-0.64 -0.6,-0.62 -1,-1.67 -0.6,-2.53 0.3,-0.96 1.3,-1.69 2.3,-1.56 z"
     id="path119"
     inkscape:connector-curvature="0" />
</g>
<g
   style="display:inline"
   inkscape:label="#Ico_Ventilateur"
   transform="matrix(0.0125,0,0,-0.0129,91.849998,46.160006)"
   id="Ico_Ventilateur">
  <path
     inkscape:connector-curvature="0"
     id="svg_31"
     d="m 1355,2514 c -11,-2 -45,-9 -75,-15 -137,-27 -193,-96 -240,-293 -25,-101 -27,-330 -5,-433 25,-121 88,-281 115,-298 6,-4 35,3 63,16 71,32 211,33 276,2 24,-12 51,-19 59,-16 8,3 27,36 44,72 90,201 258,376 458,476 70,35 79,49 80,112 0,45 -5,57 -38,100 -96,121 -212,200 -362,248 -72,23 -106,28 -220,31 -74,1 -144,1 -155,-2 z m -17,-110 c 17,-4 34,-15 40,-29 9,-20 0,-32 -92,-124 l -103,-103 -16,35 c -39,81 1,183 83,216 30,12 48,13 88,5 z" />
  <path
     inkscape:connector-curvature="0"
     id="svg_32"
     d="M 124,1411 C 92,1392 67,1346 34,1250 4,1164 7,941 39,840 84,697 162,568 263,472 c 68,-64 92,-74 182,-73 176,1 401,104 569,262 81,75 178,201 171,220 -3,8 -25,28 -48,45 -62,46 -108,137 -115,226 -3,38 -10,72 -16,76 -6,4 -85,7 -176,8 -134,0 -182,5 -253,22 -100,25 -214,75 -303,132 -68,45 -103,50 -150,21 z m 139,-119 c 20,-20 42,-52 47,-72 10,-34 9,-36 -67,-112 -61,-62 -79,-75 -86,-63 -4,9 -12,13 -17,10 -14,-9 -40,62 -40,109 0,61 27,143 53,161 30,21 64,11 110,-33 z" />
  <path
     inkscape:connector-curvature="0"
     id="svg_33"
     d="m 1242,1404 c -143,-71 -177,-254 -69,-372 52,-56 106,-81 175,-82 66,0 116,20 166,68 52,50 76,104 76,173 0,182 -184,295 -348,213 z" />
  <path
     inkscape:connector-curvature="0"
     id="svg_34"
     d="m 1696,1228 c -3,-7 -7,-38 -10,-68 -10,-100 -34,-149 -103,-217 -34,-35 -63,-66 -63,-69 0,-4 10,-21 23,-38 40,-52 92,-147 124,-226 49,-119 65,-208 65,-355 0,-147 8,-173 62,-199 42,-20 67,-20 163,0 201,41 371,172 495,378 54,89 98,219 98,287 -1,67 -32,124 -123,216 -154,158 -309,244 -520,289 -86,18 -206,19 -211,2 z" />
</g>
<g
   id="g1018"
   transform="matrix(2.014,0,0,2.013,-19.280002,-0.17999422)"
   inkscape:label="#Ico_Vanne"
   style="display:inline">
  <g
     inkscape:label="#gIco_Vanne"
     style="fill:#000000;stroke:none"
     id="Ico_Vanne"
     transform="matrix(0.0034,0,0,-0.0034,99.28,27.9)">
    <path
       inkscape:connector-curvature="0"
       id="Ico_Vanne_Ico"
       d="m 5673,6572 -751,-2 -21,-33 c -11,-17 -33,-40 -48,-49 -16,-9 -35,-28 -42,-42 -8,-14 -30,-33 -50,-42 -50,-23 -89,-62 -112,-110 -12,-26 -33,-49 -54,-60 l -35,-19 v -690 -690 l 34,-19 c 41,-22 47,-34 51,-101 2,-34 8,-53 20,-60 51,-29 65,-50 67,-98 1,-41 6,-50 34,-72 18,-14 41,-38 50,-54 10,-16 28,-35 41,-42 13,-7 33,-28 44,-46 19,-30 25,-33 70,-33 47,0 52,-3 112,-62 35,-35 69,-73 76,-85 11,-21 18,-23 104,-23 102,0 126,-9 146,-58 l 12,-29 523,2 c 287,1 527,5 534,9 9,5 12,294 12,1245 0,1310 2,1254 -45,1262 -11,2 -358,3 -772,1 z m 131,-258 c 9,-8 18,-25 21,-37 3,-12 4,-455 3,-984 -3,-908 -4,-963 -21,-980 -16,-16 -38,-18 -185,-19 -92,0 -177,3 -190,8 -12,4 -32,24 -43,43 -20,33 -24,35 -75,35 -50,0 -55,2 -85,40 -24,30 -45,44 -76,52 -50,12 -78,43 -94,100 -7,27 -20,45 -42,58 -18,11 -40,32 -49,48 -9,15 -27,34 -40,41 -13,7 -35,29 -50,49 -15,20 -38,50 -50,65 -21,26 -23,40 -28,205 -4,128 -10,188 -22,218 -23,60 -19,670 6,726 9,21 16,62 16,92 0,96 31,145 106,166 27,8 49,21 56,34 30,59 6,56 434,56 343,0 395,-2 408,-16 z m 430,-6 c 14,-20 16,-131 16,-994 0,-942 -1,-973 -19,-995 -18,-22 -26,-24 -116,-24 -90,0 -98,2 -116,24 -18,22 -19,53 -19,995 0,863 2,974 16,994 14,20 23,22 119,22 96,0 105,-2 119,-22 z"
       style="fill:#000000;fill-opacity:1;stroke-width:146.0728302;stroke-miterlimit:4;stroke-dasharray:none" />
    <path
       inkscape:label="#Ico_Vanne_Level"
       inkscape:connector-curvature="0"
       id="Ico_Vanne_Level5"
       d="m 1311,3960 c -38,1 -77,11 -105,38 -20,19 -29,47 -26,74 2,12 7,23 8,34 5,30 -5,59 -21,84 -22,33 -53,62 -64,102 -3,12 -3,24 -3,37 -9,58 6,119 -7,177 -6,27 -23,52 -48,65 -9,4 -18,8 -27,11 0,83 0,167 0,250 -6,34 7,69 -2,102 -3,13 -13,23 -24.4,30 -35.7,27 -59.9,71 -57.1,116 1.3,25 15,50 38,60 24.5,11 52.5,9 78.5,2 72,13 145,-8 217,3 33,5 65,20 85,46 7,10 13,20 18,31 213,1 426,-1 638,1 86,5 173,-8 257,10 46,10 91,33 122,70 3,6 9,4 15,4 188,1 377,2 565,3 92,7 185,-11 276,5 45,8 89,29 122,61 27,11 58,7 87,12 45,-5 89,3 134,6 45,4 91,8 135,-3 25,-7 50,-22 61,-46 6,-12 9,-26 9,-40 -12,-28 -12,-61 0,-90 20,-51 63,-89 80,-140 10,-27 7,-56 -6,-81 -2,-3 -3,-8 -7,-7 -51,0 -98,-21 -142,-44 -49,-25 -99,-53 -155,-59 -12,-1 -23,-1 -35,-1 -37,-33 -87,-46 -133,-61 -41,-14 -84,-28 -114,-61 -9,-10 -16,-21 -22,-33 -51,0 -103,0 -154,0 -48,-39 -107,-58 -162,-85 -25,-12 -48,-26 -69,-44 -88,-47 -186,-69 -274,-115 -32,7 -66,1 -95,-15 -42,-21 -77,-58 -123,-71 -29,-6 -57,-12 -85,-21 -85,-25 -165,-64 -250,-91 -29,-37 -71,-61 -115,-75 -63,-21 -131,-30 -190,-62 -53,-6 -101,-32 -147,-58 -45,-27 -93,-52 -145,-60 -4,0 -3,-5 -5,-7 -15,-30 -46,-48 -78,-57 -18,-5 -36,-7 -55,-7 z" />
    <path
       inkscape:connector-curvature="0"
       id="Ico_Vanne_Level4"
       d="m 3884,4771 c -18,-44 -50,-63 -95,-54 -28,5 -36,1 -74,-41 l -43,-46 h -96 c -53,0 -96,-4 -96,-9 0,-5 -12,-23 -26,-40 -22,-27 -32,-31 -75,-31 -50,0 -51,0 -97,-59 -16,-20 -31,-25 -101,-31 -68,-6 -86,-11 -109,-32 -41,-39 -66,-48 -124,-48 -51,0 -54,-2 -72,-34 -24,-46 -55,-57 -150,-54 -74,3 -80,2 -95,-22 -34,-52 -49,-60 -106,-60 -53,0 -56,-1 -72,-35 -21,-43 -37,-49 -141,-50 -77,0 -85,-2 -102,-25 -45,-59 -50,-63 -97,-57 -48,5 -57,0 -96,-57 -15,-22 -25,-26 -70,-26 -49,0 -54,-2 -89,-42 l -36,-43 -95,-3 -96,-4 -25,-39 c -25,-37 -29,-39 -80,-39 -51,0 -58,-3 -115,-52 -34,-29 -61,-61 -61,-71 0,-11 13,-24 35,-32 43,-19 55,-41 55,-104 0,-28 4,-51 9,-51 5,0 23,-12 40,-26 26,-22 31,-33 31,-72 0,-42 4,-50 45,-88 42,-38 45,-44 45,-93 0,-49 2,-53 36,-73 39,-23 54,-51 54,-101 0,-33 -1,-32 152,-187 46,-47 92,-97 101,-112 23,-36 39,-35 84,6 21,18 55,39 76,46 29,9 82,56 207,181 l 168,169 h 51 c 42,0 52,4 62,22 12,23 197,206 268,266 24,20 56,35 87,41 33,6 54,17 64,32 8,13 23,30 32,39 23,19 137,132 164,162 12,13 32,32 45,44 13,11 32,30 41,42 14,18 28,22 73,22 45,0 56,4 66,21 6,12 77,88 159,169 106,106 156,150 179,155 17,4 44,17 59,29 15,13 45,33 68,44 22,11 45,32 51,45 7,14 25,33 41,42 16,10 37,30 45,45 9,15 32,35 51,44 37,17 39,24 30,104 -4,28 -15,53 -35,75 -26,28 -49,81 -49,114 0,6 -16,20 -35,31 -20,12 -41,36 -49,56 -21,50 -51,49 -72,-3 z" />
    <path
       inkscape:connector-curvature="0"
       id="Ico_Vanne_Level3"
       d="m 4268,4213 c -16,-2 -28,-9 -28,-14 0,-12 -144,-159 -156,-159 -5,0 -35,-18 -68,-40 -32,-22 -69,-40 -81,-40 -13,0 -30,-11 -40,-26 -9,-14 -63,-73 -121,-130 -98,-99 -106,-104 -145,-104 -35,0 -48,-6 -80,-37 -21,-21 -48,-47 -61,-59 -13,-11 -30,-28 -38,-37 -8,-10 -68,-69 -132,-133 -65,-64 -118,-119 -118,-123 0,-15 -51,-31 -95,-31 -25,0 -45,-4 -45,-10 0,-5 -71,-80 -157,-167 l -157,-158 h -49 c -45,0 -52,-3 -73,-34 -13,-19 -36,-43 -52,-53 -16,-10 -34,-28 -41,-41 -7,-13 -25,-31 -40,-40 -15,-9 -33,-27 -40,-40 -7,-14 -25,-31 -39,-38 -13,-8 -36,-31 -49,-51 -23,-37 -25,-38 -82,-38 -57,0 -60,-1 -79,-35 -12,-19 -36,-41 -55,-49 -19,-8 -38,-19 -42,-26 -8,-13 22,-50 41,-50 13,0 234,-216 234,-228 0,-4 13,-15 28,-24 15,-9 34,-28 41,-41 7,-13 26,-31 41,-41 16,-9 37,-29 46,-45 9,-16 29,-35 43,-44 15,-9 33,-27 40,-40 7,-14 25,-31 39,-38 13,-8 36,-31 49,-51 13,-21 30,-38 37,-38 8,0 30,-18 49,-40 29,-34 40,-40 73,-40 46,0 78,-19 99,-59 12,-25 20,-28 71,-30 71,-2 86,9 78,60 -7,39 10,99 27,99 5,0 38,28 73,63 58,58 64,68 68,114 4,45 11,56 60,106 31,30 67,63 82,72 22,15 26,24 26,66 0,47 3,52 63,113 34,35 72,69 85,75 18,10 22,20 22,64 0,49 3,55 45,95 25,23 45,47 45,52 0,5 17,21 39,34 35,22 39,29 43,75 5,53 12,62 126,175 39,38 42,46 42,94 0,48 2,53 35,74 19,13 40,33 46,46 7,12 25,30 40,40 15,9 38,33 51,52 13,19 35,41 50,47 22,11 26,19 26,65 1,49 5,56 42,88 30,26 44,47 51,79 5,25 24,62 42,83 71,86 154,170 179,184 24,13 27,20 30,76 3,62 3,63 43,84 46,24 53,52 15,71 -13,7 -41,30 -60,51 -27,29 -47,41 -78,45 -30,5 -52,18 -81,47 -40,41 -52,44 -123,33 z" />
    <path
       inkscape:connector-curvature="0"
       id="Ico_Vanne_Level2"
       d="m 4822,3868 c -5,-7 -13,-23 -16,-35 -4,-11 -22,-33 -40,-47 -27,-20 -34,-34 -40,-75 -5,-37 -13,-55 -34,-73 -16,-13 -37,-38 -47,-56 -11,-17 -34,-39 -52,-47 -31,-15 -33,-18 -33,-71 v -56 l -90,-87 c -49,-49 -90,-93 -90,-99 0,-6 -16,-20 -35,-32 -32,-20 -35,-25 -35,-70 0,-45 -3,-51 -44,-84 -32,-27 -45,-46 -49,-73 -4,-20 -20,-53 -37,-74 -16,-21 -35,-50 -40,-64 -5,-14 -25,-35 -44,-46 -19,-11 -38,-29 -41,-40 -4,-11 -24,-31 -46,-46 -37,-24 -39,-29 -39,-76 0,-48 -2,-52 -62,-112 -35,-34 -73,-67 -85,-74 -20,-10 -23,-20 -23,-71 0,-58 -1,-60 -39,-85 -21,-14 -43,-36 -49,-49 -5,-12 -26,-31 -46,-40 -35,-17 -36,-18 -36,-76 0,-42 -5,-63 -16,-72 -8,-7 -45,-42 -81,-77 -61,-59 -67,-67 -71,-114 -5,-47 -10,-56 -64,-108 -33,-32 -69,-64 -81,-72 -19,-13 -21,-23 -21,-103 0,-122 1,-124 72,-124 64,0 81,-11 101,-63 10,-25 14,-27 51,-21 53,9 93,-9 113,-51 16,-33 19,-34 79,-37 60,-3 64,-4 87,-41 23,-34 28,-37 73,-37 50,0 64,-9 116,-74 9,-11 29,-16 69,-16 52,0 60,-3 95,-37 35,-34 41,-36 118,-41 108,-6 110,-4 110,118 0,106 1,107 66,146 15,9 19,22 17,60 -4,96 6,134 45,170 l 37,34 3,100 4,101 38,25 38,25 4,104 c 3,96 5,106 29,132 45,47 53,73 55,175 3,120 5,127 49,156 l 35,22 v 95 c 0,101 0,100 59,144 22,16 24,25 25,116 2,92 3,99 28,120 15,13 32,25 39,27 13,4 15,21 17,132 2,67 3,70 41,105 l 39,36 4,120 c 3,66 9,128 13,137 4,10 23,27 42,39 l 35,22 -4,96 -3,96 -56,58 c -54,54 -59,57 -106,57 -51,0 -83,20 -83,51 0,34 -47,52 -68,27 z" />
    <path
       inkscape:connector-curvature="0"
       id="Ico_Vanne_Level1"
       d="m 5412,3608 c -7,-7 -12,-38 -12,-70 0,-56 -1,-58 -40,-84 l -40,-27 v -94 c 0,-99 -7,-116 -64,-148 -16,-9 -18,-26 -20,-120 -1,-89 -5,-116 -21,-142 -11,-18 -22,-33 -26,-33 -4,0 -14,-15 -23,-34 -11,-24 -16,-62 -16,-124 0,-96 -1,-99 -66,-138 -15,-9 -17,-23 -15,-102 2,-100 7,-90 -70,-156 -16,-14 -19,-30 -19,-111 v -95 l -39,-24 -39,-25 -4,-105 c -3,-102 -4,-106 -35,-138 -39,-40 -57,-111 -48,-186 10,-78 0,-109 -46,-138 l -39,-24 v -96 c 0,-101 -7,-117 -65,-150 -17,-10 -20,-23 -20,-110 -1,-106 -14,-149 -47,-157 -26,-7 -13,-27 17,-27 45,0 104,-31 125,-66 12,-18 29,-33 38,-32 9,1 104,0 211,0 l 194,-2 40,-42 41,-43 222,2 c 123,0 228,4 233,8 17,10 15,2817 -1,2833 -8,8 -57,12 -153,12 -96,0 -145,-4 -153,-12 z" />
    <path
       inkscape:connector-curvature="0"
       id="Ico_Vanne_Swing"
       d="m 690,3111 c -5,-11 -10,-53 -10,-94 0,-77 1,-74 -64,-162 -13,-18 -16,-85 -18,-453 -1,-285 2,-436 9,-443 5,-5 34,-10 64,-11 45,0 56,4 71,24 40,54 47,58 101,58 62,0 91,-22 93,-71 1,-16 2,-42 3,-59 1,-20 6,-30 16,-30 9,0 27,-11 40,-25 21,-20 25,-34 25,-79 0,-52 2,-56 33,-72 42,-22 47,-30 47,-86 0,-35 5,-53 19,-64 71,-61 71,-61 71,-118 0,-47 3,-57 22,-67 29,-16 328,-315 328,-329 0,-6 24,-10 56,-10 53,0 58,-2 94,-41 20,-23 55,-49 76,-60 22,-10 51,-28 65,-39 17,-14 49,-24 93,-30 61,-7 71,-12 105,-48 34,-38 40,-40 78,-35 36,5 45,2 68,-21 25,-26 27,-32 23,-101 -3,-58 -8,-80 -26,-102 -52,-65 -56,-76 -56,-130 1,-29 4,-57 8,-60 4,-4 38,-7 76,-7 63,0 73,3 109,32 22,18 52,37 66,42 16,6 180,10 411,10 403,0 401,0 456,46 15,12 45,25 67,29 41,7 77,36 66,54 -3,6 -19,18 -35,26 -16,8 -93,80 -172,160 -173,175 -153,155 -213,208 -27,24 -64,49 -81,56 -43,17 -79,57 -103,114 -20,46 -21,47 -66,47 -43,0 -49,4 -115,70 -39,38 -70,76 -70,83 0,8 -7,20 -15,27 -19,16 -41,0 -60,-46 -7,-18 -27,-40 -44,-49 l -31,-16 v -93 c 0,-109 -12,-133 -72,-143 -51,-8 -92,11 -114,52 -17,32 -21,34 -78,37 -59,3 -61,4 -89,45 -27,42 -29,42 -72,36 -43,-5 -46,-4 -94,43 -88,86 -124,111 -176,122 -34,7 -55,18 -65,34 -8,13 -34,42 -57,65 -39,38 -43,45 -43,92 0,28 -4,51 -10,51 -5,0 -43,33 -85,74 -73,73 -75,76 -75,124 0,45 -3,50 -37,73 l -38,24 -3,80 c -3,102 -7,118 -38,152 -53,57 -13,93 108,93 76,0 78,1 93,30 9,17 32,38 53,48 48,22 55,57 15,74 -34,15 -216,196 -237,236 -8,15 -22,35 -31,42 -9,8 -28,37 -42,64 -14,28 -38,65 -55,81 -16,17 -96,99 -179,183 -144,148 -176,172 -231,172 -10,0 -22,-9 -28,-19 z" />
  </g>
</g>
<g
   id="Ico_Vanne_Auto"
   transform="matrix(2.014,0,0,2.013,-21.300002,-65.929991)"
   inkscape:label="#Ico_Vanne_Auto"
   style="display:inline;opacity:1;fill:#000000">
  <path
     style="display:inline;opacity:1;fill:#000000;stroke-width:0.0027"
     d="m 111.5,42.75 c 0,0.29 -0.3,1.34 0.2,1.33 1.4,-0.01 2.6,0.78 3.4,1.82 0.5,0.62 0.8,1.42 0.9,2.22 0,0.73 0,1.46 -0.2,2.15 -0.3,1.08 -1.2,1.94 -2.1,2.54 -0.9,0.5 -1.9,0.78 -2.9,0.5 -1.1,-0.44 0.5,-0.98 0.8,-1.48 0.6,-0.54 0.9,-1.31 1,-2.08 0,-0.76 0,-1.55 -0.3,-2.28 -0.2,-0.84 -0.6,-1.64 -1.2,-2.3 -0.8,-0.94 -1.9,-1.62 -3.1,-1.94 -1.1,-0.19 -2.3,-0.19 -3.3,0.2 -1,0.35 -1.9,0.96 -2.6,1.78 -0.7,0.79 -1.1,1.79 -1.3,2.8 -0.1,0.94 -0.1,1.93 0.2,2.86 0,0.66 0.5,1.41 1.2,0.83 0.9,-0.26 -0.3,-1.33 -0.1,-1.97 -0.1,-0.72 -0.1,-1.47 0.2,-2.13 0.4,-1.16 1.3,-2.18 2.4,-2.73 0.7,-0.29 1.5,-0.41 2.2,-0.44 0.6,0.09 1.8,0.2 1.7,0.87 -0.6,0.31 -1.3,0.54 -1.9,0.95 -1,0.7 -2.1,1.54 -2.6,2.73 -0.3,0.68 -0.6,1.41 -0.7,2.18 -0.1,0.95 0,1.94 0.3,2.84 0.5,1.22 1.4,2.23 2.4,2.99 0.7,0.42 1.4,0.78 2.2,0.89 0.9,0.18 1.8,-0.02 2.6,-0.16 0.8,-0.26 1.6,-0.62 2.2,-1.28 0.2,-0.37 -0.7,-0.75 -0.9,-0.96 -0.4,0.5 -1.1,0.84 -1.7,0.97 -0.8,0.31 -1.7,0.11 -2.4,-0.07 -1.5,-0.43 -2.7,-1.56 -3.1,-2.99 -0.3,-0.74 -0.2,-1.58 -0.2,-2.37 0.1,-0.82 0.9,-0.54 1,0.13 0.7,1.19 1.6,2.3 2.9,2.98 0.7,0.42 1.5,0.67 2.3,0.68 1,0.03 2,-0.04 2.8,-0.51 1,-0.43 1.9,-1.23 2.5,-2.17 0.5,-0.68 0.8,-1.41 1,-2.21 0.1,-0.55 0,-1.14 0,-1.71 -0.2,-0.73 -0.3,-1.5 -0.6,-2.17 -0.6,-1.1 -1.5,-2 -2.5,-2.61 -0.7,-0.39 -1.5,-0.61 -2.3,-0.68 -0.1,-0.01 -0.2,-0.02 -0.4,0 z m -2.2,4.18 c 0.8,0.08 1.5,0.75 1.8,1.51 0.2,0.75 0.2,1.62 -0.3,2.25 -0.5,0.63 -1.2,1.03 -2,0.96 -0.5,-0.01 -1,-0.31 -1.4,-0.64 -0.6,-0.62 -1,-1.67 -0.6,-2.53 0.3,-0.96 1.3,-1.69 2.3,-1.56 z"
     id="path119-5"
     inkscape:connector-curvature="0" />
</g>
<text
   xml:space="preserve"
   style="font-style:normal;font-variant:normal;font-weight:bold;font-stretch:normal;font-size:37.57751846px;line-height:1.25;font-family:sans-serif;-inkscape-font-specification:'sans-serif, Bold';font-variant-ligatures:normal;font-variant-caps:normal;font-variant-numeric:normal;font-feature-settings:normal;text-align:start;letter-spacing:0px;word-spacing:0px;writing-mode:lr-tb;text-anchor:start;fill:#000000;fill-opacity:1;stroke:none;stroke-width:2.01309943"
   x="131.30344"
   y="97.245529"
   id="Temperature"
   inkscape:label="#Temperature"
   transform="scale(1.00005,0.99995)"><tspan
     sodipodi:role="line"
     id="tspan1022"
     x="131.30344"
     y="97.245529"
     style="stroke-width:2.01309943">21</tspan></text>
<g
   id="Button_Mode"
   transform="matrix(1,0,0,0.9888,6.3099982,5.7100058)">
  <g
     style="fill:#000000;stroke:none"
     id="g4769"
     transform="matrix(0.0096,0,0,-0.0096,12.06,209.3)">
    <path
       inkscape:connector-curvature="0"
       id="path4755"
       d="m 2838,4516 c -31,-6 -60,-14 -64,-18 -4,-5 -17,-8 -29,-8 -12,0 -30,-7 -41,-15 -10,-8 -25,-15 -32,-15 -13,0 -90,-51 -154,-103 -38,-31 -123,-138 -150,-192 -96,-186 -124,-355 -99,-590 11,-102 49,-222 92,-295 5,-8 13,-24 18,-36 26,-58 188,-219 251,-247 8,-4 29,-16 45,-26 17,-11 36,-20 43,-20 8,-1 28,-7 45,-15 18,-8 52,-17 77,-20 25,-4 59,-9 75,-12 76,-14 223,2 292,32 17,8 35,14 41,14 25,0 153,81 209,134 100,93 168,200 205,321 9,28 22,70 29,95 22,72 19,378 -4,455 -10,33 -22,68 -28,77 -5,10 -9,24 -9,31 0,20 -56,123 -96,178 -40,55 -166,176 -197,190 -12,5 -29,13 -37,17 -131,74 -318,101 -482,68 z m 287,-152 c 28,-9 58,-21 68,-26 10,-5 36,-18 58,-30 22,-11 73,-54 113,-94 230,-232 263,-629 75,-905 -126,-184 -347,-288 -529,-249 -30,6 -67,14 -82,17 -15,3 -33,11 -39,19 -6,8 -18,14 -26,14 -24,0 -116,64 -166,117 -49,50 -61,68 -94,133 -9,19 -22,42 -28,50 -14,19 -39,97 -55,170 -27,122 9,393 58,442 7,7 12,18 12,26 0,25 89,150 141,196 45,40 97,70 209,119 49,22 219,22 285,1 z" />
    <path
       inkscape:connector-curvature="0"
       id="path4757"
       d="m 604,4476 -39,-34 -3,-734 c -2,-732 -2,-735 19,-761 24,-32 66,-36 98,-9 l 22,17 -1,662 c 0,421 3,664 9,668 12,7 36,-37 61,-113 10,-31 28,-82 40,-112 37,-97 71,-194 77,-220 3,-14 12,-34 19,-45 8,-11 14,-29 14,-40 0,-11 7,-29 15,-39 8,-11 15,-28 15,-38 0,-10 4,-26 9,-36 23,-46 41,-95 41,-112 0,-10 4,-21 9,-24 4,-3 18,-36 30,-73 12,-37 26,-77 30,-88 19,-46 41,-104 66,-175 37,-106 55,-139 91,-166 64,-49 127,-20 173,79 16,34 32,77 36,94 3,18 11,35 16,38 5,4 9,16 9,29 0,12 4,26 9,32 5,5 18,38 30,74 23,69 34,98 57,143 8,16 14,39 14,52 0,13 5,27 10,30 6,3 10,14 10,23 0,9 6,29 14,44 8,15 17,40 21,57 4,17 11,33 16,36 5,4 9,17 9,30 0,13 4,26 9,30 5,3 19,37 31,75 12,38 26,72 31,75 5,4 9,19 9,34 0,16 7,34 15,41 8,7 15,20 15,29 0,9 9,41 21,71 11,30 24,66 29,80 21,66 48,101 51,68 1,-7 0,-302 -1,-656 l -2,-644 23,-24 c 28,-30 78,-32 103,-5 15,17 17,77 16,762 0,719 -1,744 -20,763 -41,41 -135,58 -184,32 -31,-16 -66,-58 -66,-80 0,-14 -20,-65 -41,-108 -5,-10 -9,-26 -9,-36 0,-10 -7,-27 -15,-38 -8,-10 -15,-31 -15,-45 0,-14 -7,-34 -15,-45 -8,-10 -15,-26 -15,-35 0,-9 -7,-30 -15,-45 -8,-16 -15,-37 -15,-46 0,-9 -4,-20 -10,-23 -5,-3 -10,-16 -10,-29 0,-12 -7,-31 -15,-42 -8,-10 -15,-28 -15,-40 0,-11 -7,-29 -15,-40 -8,-10 -15,-31 -15,-46 0,-15 -4,-29 -9,-32 -5,-3 -11,-16 -14,-28 -3,-13 -15,-48 -27,-78 -12,-30 -30,-82 -41,-115 -10,-33 -23,-69 -28,-80 -21,-49 -42,-105 -61,-167 -26,-83 -41,-98 -64,-63 -9,14 -19,39 -23,55 -3,17 -10,33 -14,36 -5,3 -9,13 -9,22 0,9 -7,30 -15,46 -8,15 -15,34 -15,42 0,7 -7,30 -16,51 -9,21 -21,47 -25,58 -15,36 -60,169 -66,195 -3,14 -9,30 -13,35 -4,6 -17,37 -28,70 -18,52 -48,134 -96,265 -7,19 -23,64 -35,100 -12,36 -26,72 -30,80 -5,9 -12,30 -15,48 -4,17 -12,34 -17,37 -5,4 -9,16 -9,28 0,30 -32,76 -65,93 -15,8 -51,14 -79,14 -45,0 -58,-5 -92,-34 z" />
    <path
       inkscape:connector-curvature="0"
       id="path4759"
       d="m 4067,4469 c -20,-11 -51,-38 -67,-61 l -30,-41 v -652 -652 l 30,-41 c 51,-71 64,-73 394,-69 298,4 349,8 401,32 136,62 175,85 238,144 62,59 127,140 127,160 0,5 7,14 15,21 8,7 15,20 15,30 0,10 6,23 14,29 8,6 16,26 19,44 3,18 15,77 27,132 17,79 21,121 17,200 -4,96 -19,180 -38,217 -5,10 -9,24 -9,32 0,17 -58,130 -91,178 -74,109 -246,243 -338,263 -17,3 -33,11 -36,16 -4,5 -19,9 -34,9 -16,0 -48,7 -71,15 -34,12 -95,15 -294,15 -231,-1 -254,-2 -289,-21 z m 513,-132 c 86,-13 105,-19 190,-60 109,-54 206,-144 266,-246 24,-42 44,-84 44,-94 0,-10 7,-32 16,-50 25,-47 24,-284 -1,-358 -42,-127 -94,-216 -162,-280 -45,-43 -146,-109 -167,-109 -8,0 -27,-6 -43,-14 -48,-25 -166,-36 -369,-36 -194,0 -195,0 -219,25 l -25,24 v 579 579 l 23,20 c 12,11 29,23 37,26 20,8 352,3 410,-6 z" />
    <path
       inkscape:connector-curvature="0"
       id="path4761"
       d="m 5622,4470 c -49,-27 -69,-48 -92,-94 -19,-41 -20,-60 -20,-658 0,-588 1,-617 19,-659 22,-49 51,-79 93,-97 20,-8 160,-12 480,-12 249,0 459,0 466,0 19,0 43,66 36,95 -3,14 -14,30 -24,35 -11,6 -187,10 -443,10 -403,0 -426,1 -448,19 -24,19 -24,19 -27,287 -3,212 -1,269 10,275 7,5 195,9 418,9 463,0 450,-2 450,75 0,35 -5,47 -21,56 -15,8 -139,11 -424,10 -359,-2 -404,0 -419,14 -14,14 -16,45 -16,208 0,241 4,263 44,288 29,18 57,19 453,19 407,0 423,1 433,19 17,33 12,76 -13,99 -23,22 -25,22 -473,21 -418,0 -451,-1 -482,-19 z" />
    <path
       inkscape:connector-curvature="0"
       id="path4763"
       d="m 690,2543 c -41,-2 -89,-10 -107,-18 -17,-8 -35,-15 -40,-15 -5,0 -35,-14 -67,-31 -67,-37 -168,-127 -205,-184 -41,-64 -81,-146 -81,-167 0,-11 -7,-40 -15,-66 -13,-41 -15,-143 -12,-767 3,-778 1,-753 59,-870 C 286,297 378,204 500,146 636,82 401,86 3515,86 c 2919,-1 2868,-1 2950,34 11,5 37,16 57,24 52,20 136,85 189,144 51,56 117,183 132,252 6,26 12,333 14,741 4,724 1,785 -39,889 -64,165 -185,280 -373,354 -49,20 -87,20 -2865,21 -1548,1 -2849,0 -2890,-2 z m 5732,-109 c 40,-14 80,-32 89,-40 8,-8 20,-14 26,-14 6,0 40,-29 77,-65 75,-76 131,-178 146,-272 12,-70 12,-1377 0,-1448 -10,-64 -27,-108 -67,-172 C 6608,286 6503,214 6342,181 6305,173 5457,170 3512,170 502,170 667,167 547,224 397,295 309,409 261,596 c -18,66 -15,1371 3,1454 27,129 89,228 193,308 41,32 76,50 163,83 42,16 223,17 2887,18 l 2842,1 z" />
    <path
       inkscape:connector-curvature="0"
       id="path4765"
       d="m 671,2409 c -105,-18 -212,-86 -286,-183 -15,-20 -40,-68 -56,-107 l -29,-71 v -720 c 0,-799 -2,-773 67,-889 56,-94 145,-163 261,-201 53,-17 178,-18 2886,-18 2541,0 2836,2 2876,16 174,60 273,165 324,345 14,49 16,144 16,734 0,726 0,731 -51,840 -50,106 -147,193 -267,238 l -57,22 -2815,1 c -1637,1 -2838,-2 -2869,-7 z m 5704,-95 c 11,-6 37,-19 57,-29 55,-26 132,-104 164,-166 l 29,-54 V 1319 573 l -29,-56 c -48,-96 -142,-170 -261,-206 -57,-17 -5611,-11 -5670,6 -68,20 -108,45 -166,102 -57,57 -75,87 -103,175 -14,43 -16,133 -16,720 0,715 0,705 49,812 20,43 102,130 136,145 11,5 27,13 35,18 27,16 64,30 90,34 14,3 1294,4 2845,3 2035,-1 2826,-4 2840,-12 z" />
    <path
       inkscape:connector-curvature="0"
       id="path4767"
       d="m 2315,1593 c -62,-30 -98,-64 -133,-123 -25,-42 -27,-53 -27,-157 1,-91 4,-115 18,-131 9,-10 17,-23 17,-28 0,-14 80,-89 115,-107 90,-48 75,-47 1204,-47 966,0 1067,2 1124,17 103,28 171,82 218,176 31,60 31,194 -1,254 -31,61 -88,119 -144,148 l -49,25 -1146,-1 -1146,-1 z m 2321,-69 c 98,-40 147,-109 147,-205 0,-32 -7,-72 -16,-92 -21,-44 -88,-105 -124,-112 -16,-4 -37,-8 -48,-10 -31,-7 -2146,-5 -2185,2 -61,10 -121,56 -151,115 -26,51 -26,145 1,196 26,49 43,65 106,97 l 49,25 h 1091 c 977,0 1096,-2 1130,-16 z" />
  </g>
  <rect
     ry="4.0539999"
     y="186.2"
     x="15.53"
     height="20"
     width="60"
     id="rect4813"
     style="opacity:0.956;fill:#b3b3b3" />
  <rect
     ry="3.0250001"
     y="193.89999"
     x="31.889999"
     height="6.0510001"
     width="28.110001"
     id="rect4817"
     style="opacity:0.956;fill:#000000;stroke-width:1.10010004" />
</g>
<g
   id="Button_Fan"
   inkscape:label="#Button_Fan"
   transform="translate(6.3099982,3.8400028)">
  <rect
     ry="2.9360001"
     y="186.5"
     x="94.489998"
     height="19.41"
     width="60"
     id="rect4908"
     style="opacity:0.956;fill:#b3b3b3;stroke-width:1" />
  <g
     style="fill:#000000;stroke:none"
     id="g4867"
     transform="matrix(0.0093,0,0,-0.0093,92.25,208.9)">
    <path
       inkscape:connector-curvature="0"
       id="path4855"
       d="m 3270,4603 c -33,-6 -110,-82 -110,-109 0,-20 -42,-109 -61,-128 -5,-6 -9,-18 -9,-28 0,-21 -20,-66 -50,-116 -11,-18 -18,-38 -15,-43 4,-5 -10,-38 -29,-74 -20,-35 -36,-75 -36,-89 0,-14 -4,-28 -10,-31 -12,-7 -60,-107 -60,-123 0,-6 -16,-41 -35,-76 -19,-36 -35,-72 -35,-81 0,-9 -16,-46 -35,-82 -19,-36 -35,-76 -35,-88 0,-12 -9,-30 -20,-40 -11,-10 -20,-25 -20,-34 0,-9 -7,-25 -15,-35 -8,-11 -15,-28 -15,-38 0,-10 -16,-47 -35,-84 -19,-36 -35,-72 -35,-80 0,-8 -16,-45 -35,-83 -51,-99 -48,-115 27,-142 50,-17 83,0 110,58 11,24 24,46 29,49 5,3 9,16 9,30 0,14 16,54 35,90 19,35 35,71 35,79 0,8 17,47 37,85 l 37,70 h 433 432 l 15,-22 c 9,-12 16,-31 16,-41 0,-10 15,-46 33,-80 19,-34 32,-68 29,-75 -2,-7 1,-18 6,-25 21,-25 62,-107 62,-122 0,-29 30,-74 60,-90 39,-20 56,-19 91,6 35,25 38,62 9,114 -11,20 -20,46 -20,59 0,13 -7,29 -15,36 -8,7 -15,19 -15,27 0,8 -9,26 -20,40 -11,14 -20,35 -20,46 0,11 -16,48 -35,83 -19,34 -35,71 -35,81 0,18 -7,34 -48,106 -12,21 -22,48 -22,61 0,13 -7,29 -15,36 -8,7 -15,19 -15,27 0,7 -10,27 -21,42 -12,16 -19,34 -15,39 3,6 -10,37 -29,70 -19,33 -35,68 -35,78 0,9 -16,48 -35,85 -19,38 -35,77 -35,87 0,10 -8,29 -17,42 -28,39 -53,93 -53,112 0,9 -16,44 -35,77 -19,32 -35,66 -35,74 0,21 -28,85 -41,93 -6,3 -17,21 -25,39 -11,28 -19,33 -60,39 -49,6 -73,6 -114,-1 z m 80,-185 c 11,-18 20,-45 20,-60 0,-15 4,-29 9,-33 15,-9 61,-96 61,-116 0,-10 16,-48 35,-83 19,-36 35,-72 35,-81 0,-9 16,-45 35,-81 19,-35 35,-75 35,-87 0,-13 4,-27 9,-33 16,-15 61,-104 61,-118 0,-8 9,-33 20,-57 10,-24 16,-47 11,-52 -4,-4 -167,-6 -362,-5 l -354,3 2,30 c 1,16 11,41 22,56 11,15 23,40 26,55 8,35 54,132 66,140 5,3 9,17 9,31 0,14 16,54 35,89 19,35 35,70 35,78 0,8 16,43 35,79 19,36 35,75 35,87 0,12 8,34 18,48 27,39 52,93 52,112 0,40 25,39 50,-2 z" />
    <path
       inkscape:connector-curvature="0"
       id="path4857"
       d="m 4353,4604 c -13,-3 -36,-22 -53,-42 l -30,-37 v -752 -753 l 36,-15 c 48,-20 96,-8 105,26 4,13 7,320 8,681 1,378 5,659 10,662 10,7 51,-57 51,-80 0,-8 9,-23 21,-35 11,-11 31,-42 44,-67 13,-26 35,-62 49,-81 14,-19 23,-38 19,-44 -3,-6 0,-15 8,-21 21,-16 69,-90 69,-107 1,-7 14,-30 30,-49 17,-19 30,-41 30,-50 0,-8 16,-35 35,-59 19,-24 35,-52 35,-61 0,-10 7,-24 16,-31 9,-7 20,-22 25,-34 5,-11 13,-28 19,-37 5,-10 13,-24 18,-32 4,-7 19,-32 35,-54 15,-23 27,-48 27,-55 0,-7 16,-32 35,-54 19,-23 35,-46 35,-52 0,-14 46,-87 60,-96 5,-3 10,-17 10,-31 0,-14 7,-27 15,-30 8,-3 27,-31 42,-62 60,-125 134,-180 207,-154 18,7 39,12 48,12 8,0 22,8 32,18 15,17 16,83 14,793 l -3,774 -27,9 c -17,6 -42,6 -65,0 l -38,-9 -5,-684 -5,-683 -32,40 c -18,23 -33,48 -33,57 0,17 -46,85 -67,98 -7,4 -13,19 -13,32 0,13 -5,27 -10,30 -16,10 -60,82 -60,98 0,8 -11,25 -23,38 -13,13 -36,49 -51,79 -15,30 -36,64 -47,76 -10,11 -19,26 -19,32 0,7 -16,35 -35,62 -19,27 -35,57 -35,66 0,9 -16,34 -35,57 -19,22 -35,47 -35,55 0,8 -11,29 -24,47 -14,18 -37,54 -52,81 -14,27 -35,58 -45,70 -11,11 -19,28 -19,37 0,9 -16,39 -35,66 -19,26 -35,53 -35,59 0,6 -11,23 -24,39 -13,15 -32,48 -43,73 -11,25 -29,53 -41,63 -20,19 -105,30 -149,21 z" />
    <path
       inkscape:connector-curvature="0"
       id="path4859"
       d="m 1595,4586 c -53,-20 -105,-68 -105,-98 0,-15 -4,-30 -10,-33 -16,-10 -14,-1430 3,-1443 22,-18 59,-24 81,-14 11,6 29,13 38,16 16,5 18,34 20,378 l 3,373 384,3 c 429,3 410,-1 411,73 0,70 9,68 -416,71 l -379,3 -3,244 c -2,216 0,246 14,263 16,17 40,18 389,18 439,0 445,1 445,74 0,36 -5,48 -26,65 -26,20 -36,21 -423,20 -267,-1 -406,-5 -426,-13 z" />
    <path
       inkscape:connector-curvature="0"
       id="path4861"
       d="m 570,2600 c -8,-5 -36,-10 -61,-10 -25,0 -54,-7 -65,-15 -10,-8 -26,-15 -34,-15 -9,0 -23,-9 -33,-20 -9,-11 -25,-20 -34,-20 -19,0 -173,-135 -173,-152 0,-5 -15,-28 -34,-49 -21,-25 -36,-55 -40,-81 -4,-23 -10,-47 -15,-53 -4,-5 -14,-32 -22,-60 C 48,2084 45,1941 45,1340 V 605 l 28,-74 c 15,-41 27,-81 27,-89 0,-41 211,-272 248,-272 12,0 23,-4 26,-9 3,-5 32,-21 63,-37 l 58,-29 h 2990 2990 l 32,23 c 17,12 35,22 41,22 5,0 15,7 22,15 7,8 23,15 37,15 13,0 26,6 29,14 3,7 25,28 50,46 48,34 154,167 154,192 0,8 15,43 32,79 l 33,64 3,755 c 2,516 0,769 -8,798 -6,24 -22,66 -35,95 -14,28 -25,57 -25,65 0,8 -12,29 -27,47 -16,18 -41,51 -57,73 -15,22 -48,55 -72,73 -24,18 -44,36 -44,41 0,4 -11,8 -24,8 -13,0 -29,7 -36,14 -20,25 -92,54 -150,61 -88,12 -5843,16 -5860,5 z m 5862,-97 c 6,-7 19,-13 28,-13 8,0 26,-9 40,-20 14,-11 33,-20 43,-20 9,0 25,-7 35,-15 86,-74 113,-102 153,-162 30,-43 49,-84 53,-113 4,-24 11,-49 17,-56 6,-7 8,-287 6,-760 -3,-840 -1,-811 -76,-922 -48,-70 -167,-182 -194,-182 -10,0 -28,-6 -40,-14 -12,-8 -51,-24 -86,-35 l -64,-21 H 3475 c -2033,0 -2882,3 -2906,11 -42,13 -76,27 -112,45 -16,8 -37,14 -47,14 -11,0 -23,6 -27,12 -4,7 -29,30 -55,51 -44,35 -120,133 -144,187 -7,14 -19,57 -28,96 -23,104 -24,1434 -1,1510 8,27 15,61 15,75 0,36 95,174 150,217 25,20 50,42 56,48 5,7 23,16 40,20 16,4 34,10 39,15 6,4 33,17 60,28 50,20 57,20 2977,18 2326,-2 2930,-5 2940,-14 z" />
    <path
       inkscape:connector-curvature="0"
       id="path4863"
       d="m 565,2460 c -11,-5 -33,-9 -48,-9 -64,-2 -229,-128 -263,-202 -48,-103 -63,-142 -73,-194 -9,-44 -11,-240 -9,-740 3,-747 -1,-693 65,-834 29,-62 124,-162 197,-205 97,-58 -14,-57 3089,-53 1690,2 2854,8 2887,13 67,12 169,71 228,133 24,26 62,84 85,131 l 42,85 v 765 765 l -38,79 c -21,44 -54,98 -74,120 -36,41 -124,106 -141,106 -5,0 -15,6 -21,14 -7,8 -33,17 -59,21 -67,11 -5843,15 -5867,5 z m 5889,-115 c 62,-32 89,-53 132,-105 30,-35 54,-71 54,-80 0,-8 8,-28 18,-45 16,-28 17,-85 20,-728 2,-424 -1,-716 -7,-745 -16,-76 -41,-137 -69,-169 -15,-17 -32,-39 -38,-49 -6,-11 -53,-40 -105,-66 l -94,-48 H 3483 c -2118,0 -2889,3 -2910,11 -111,45 -157,75 -209,138 -30,36 -54,73 -54,82 0,9 -7,33 -15,53 -14,32 -15,131 -13,769 2,544 6,737 15,752 6,11 14,32 17,46 7,34 87,131 123,150 15,7 44,23 63,34 19,11 50,25 70,31 26,9 773,12 2920,10 l 2885,-1 z" />
    <path
       inkscape:connector-curvature="0"
       id="path4865"
       d="m 3140,2194 c -25,-7 -55,-13 -68,-13 -12,-1 -45,-17 -72,-36 -27,-19 -53,-35 -58,-35 -11,0 -122,-120 -122,-132 0,-5 -10,-28 -21,-51 -14,-27 -23,-69 -26,-118 -5,-74 -4,-79 31,-145 47,-86 81,-123 176,-187 71,-47 97,-57 198,-76 49,-9 95,-39 100,-65 5,-24 -23,-53 -61,-61 -61,-14 -218,-4 -242,15 -14,11 -155,60 -174,60 -29,0 -107,-43 -148,-84 l -43,-40 V 1092 959 l 34,-53 c 19,-29 36,-62 38,-72 2,-10 14,-24 28,-31 14,-7 32,-25 41,-40 8,-15 26,-29 38,-31 12,-2 25,-10 28,-18 3,-8 24,-24 46,-34 33,-16 62,-20 153,-20 111,0 112,0 154,33 72,56 130,109 130,120 0,5 16,27 35,48 19,22 35,48 35,59 0,11 4,28 9,38 20,39 30,69 35,106 6,43 29,73 61,78 15,2 26,-8 43,-42 39,-77 27,-190 -32,-308 -28,-58 -30,-160 -2,-191 11,-12 24,-31 30,-43 6,-12 36,-34 66,-50 45,-23 67,-28 125,-28 64,0 134,16 151,33 4,4 18,7 30,7 60,0 244,184 244,244 0,12 5,27 11,33 14,14 15,143 0,170 -6,12 -11,30 -11,41 0,10 -15,36 -33,58 -19,21 -36,47 -40,57 -3,9 -13,17 -21,17 -8,0 -27,16 -42,35 -14,19 -32,35 -39,35 -15,0 -103,48 -110,61 -4,5 -29,9 -56,9 -56,0 -100,19 -123,52 -22,31 -21,32 24,62 35,23 49,26 126,26 77,0 93,-3 158,-35 63,-30 83,-35 145,-35 105,0 150,30 201,135 31,65 25,155 -19,246 -17,36 -31,72 -31,80 0,18 -135,159 -151,159 -7,0 -27,11 -45,25 -18,14 -39,25 -48,25 -8,0 -18,5 -21,10 -9,14 -148,12 -182,-2 -81,-36 -243,-192 -243,-235 0,-11 -7,-26 -16,-33 -24,-21 -46,-80 -53,-145 -5,-51 -10,-61 -33,-74 -24,-14 -28,-14 -48,4 -12,11 -31,39 -42,63 -26,54 -21,105 20,192 92,199 58,341 -92,389 -69,21 -111,23 -176,5 z m 386,-785 c 7,-6 17,-23 24,-39 16,-39 0,-79 -41,-102 -41,-24 -58,-23 -102,7 -32,22 -37,31 -37,64 0,40 27,74 65,84 25,6 76,-2 91,-14 z" />
  </g>
</g>
<g
   id="Button_Vanne"
   transform="translate(6.3099982,3.8400028)">
  <rect
     transform="scale(1,-1)"
     ry="3.052"
     y="-206.8"
     x="176"
     height="19.75"
     width="60"
     id="rect5032"
     style="opacity:0.956;fill:#b3b3b3;stroke-width:1.02820003" />
  <g
     style="fill:#000000;stroke:none"
     id="g4976"
     transform="matrix(0.0094,0,0,-0.0094,172.9,210.5)">
    <path
       inkscape:connector-curvature="0"
       id="path4954"
       d="m 668,4663 c -42,-22 -45,-55 -13,-148 15,-44 32,-84 36,-89 5,-6 9,-16 9,-24 0,-8 7,-28 15,-45 8,-18 20,-50 28,-72 8,-22 56,-152 107,-290 51,-137 99,-268 107,-290 8,-22 20,-54 28,-72 8,-17 15,-36 15,-43 0,-6 8,-30 19,-53 10,-23 47,-121 81,-217 50,-138 71,-183 98,-212 59,-62 156,-62 215,0 19,20 60,120 142,342 63,173 121,329 129,345 8,17 17,41 21,55 3,14 10,34 15,45 32,69 250,682 250,702 0,38 -17,60 -54,73 -51,16 -76,-4 -109,-89 -15,-38 -27,-72 -27,-76 0,-4 -7,-21 -15,-38 -8,-18 -44,-113 -80,-212 -36,-99 -69,-189 -75,-200 -5,-11 -12,-31 -16,-45 -3,-14 -14,-43 -24,-65 -16,-35 -160,-424 -197,-530 -8,-22 -20,-54 -28,-72 -8,-17 -15,-35 -15,-41 0,-5 -7,-16 -16,-23 -14,-11 -18,-10 -30,6 -8,11 -19,37 -25,59 -6,21 -15,46 -20,55 -5,9 -15,34 -23,56 -36,107 -181,495 -197,532 -11,23 -19,47 -19,53 0,7 -7,26 -15,43 -8,18 -20,50 -28,72 -46,129 -160,435 -172,461 -15,33 -55,65 -77,63 -7,-1 -25,-8 -40,-16 z" />
    <path
       inkscape:connector-curvature="0"
       id="path4956"
       d="m 2715,4661 c -22,-10 -47,-27 -56,-37 -9,-11 -78,-161 -153,-334 -76,-173 -146,-333 -157,-356 -10,-23 -19,-44 -19,-47 0,-3 -15,-38 -34,-79 -18,-40 -77,-174 -131,-298 -53,-124 -110,-253 -126,-288 -37,-79 -37,-114 -3,-141 33,-26 75,-27 103,-3 19,16 100,190 166,358 15,38 32,75 38,82 7,9 103,12 439,10 l 429,-3 95,-215 c 52,-118 104,-223 115,-232 30,-26 75,-23 104,7 32,31 31,53 -5,132 -16,35 -30,67 -30,71 0,3 -9,24 -19,46 -11,23 -97,219 -191,436 -94,217 -178,409 -185,425 -8,17 -50,113 -95,215 -44,103 -88,196 -96,209 -18,25 -94,61 -127,60 -12,0 -40,-8 -62,-18 z m 86,-181 c 5,-8 45,-100 89,-205 45,-104 120,-279 167,-388 47,-108 84,-200 81,-203 -3,-3 -167,-5 -364,-5 -290,0 -358,2 -356,13 2,7 10,29 18,48 37,82 56,126 64,145 67,157 176,409 190,440 9,22 30,71 45,108 28,68 47,81 66,47 z" />
    <path
       inkscape:connector-curvature="0"
       id="path4958"
       d="m 3808,4667 c -14,-7 -36,-21 -48,-32 -52,-47 -50,-22 -50,-800 v -726 l 25,-24 c 15,-16 36,-25 55,-25 19,0 40,9 55,25 l 25,24 v 661 c 0,363 3,660 8,660 4,0 69,-107 145,-238 77,-130 208,-354 293,-497 84,-143 158,-269 164,-280 6,-11 50,-87 99,-169 95,-162 121,-186 192,-186 42,0 99,34 116,71 10,20 13,201 14,760 v 734 l -24,28 c -29,32 -51,34 -94,7 l -33,-20 v -670 c 0,-369 -4,-669 -8,-666 -8,4 -92,142 -115,186 -4,8 -77,132 -161,275 -85,143 -220,373 -301,510 -209,356 -217,368 -256,387 -40,20 -64,21 -101,5 z" />
    <path
       inkscape:connector-curvature="0"
       id="path4960"
       d="m 5330,4634 c -42,-18 -76,-49 -98,-89 -15,-27 -17,-95 -20,-644 -3,-669 -1,-699 49,-755 55,-64 76,-66 567,-66 429,0 440,0 466,21 20,16 26,29 26,60 0,34 -5,42 -32,59 -32,19 -51,20 -463,20 -398,-1 -431,0 -442,17 -10,13 -13,81 -11,293 l 3,275 423,5 424,5 19,24 c 26,32 24,67 -6,96 l -24,25 h -421 -420 v 243 c 0,224 2,245 18,260 17,15 62,17 446,17 260,0 434,4 446,10 10,5 23,24 29,41 10,28 8,36 -14,66 l -26,33 h -452 c -381,-1 -457,-3 -487,-16 z" />
    <path
       inkscape:connector-curvature="0"
       id="path4962"
       d="M 580,2667 C 364,2612 210,2464 138,2244 l -23,-69 v -740 c 0,-698 1,-743 19,-800 39,-123 76,-186 160,-271 83,-83 145,-122 256,-160 53,-18 138,-19 2960,-19 h 2905 l 63,23 c 112,40 165,73 244,151 88,89 151,203 168,305 14,86 13,1465 -1,1541 -41,223 -225,410 -460,465 -86,20 -107,20 -2925,19 l -2839,-1 z m 5900,-110 c 92,-39 161,-89 212,-155 55,-69 73,-103 98,-185 19,-59 20,-96 20,-783 0,-694 -1,-724 -20,-787 -29,-93 -66,-154 -134,-222 -72,-71 -142,-111 -240,-136 -68,-18 -180,-19 -2906,-19 -2726,0 -2838,1 -2906,19 -100,26 -168,65 -245,141 -71,70 -118,155 -138,248 -15,74 -15,1440 0,1514 35,165 172,315 339,372 l 75,26 2890,-3 2890,-2 z" />
    <path
       inkscape:connector-curvature="0"
       id="path4964"
       d="M 620,2543 C 566,2533 452,2471 399,2422 335,2363 276,2256 260,2171 245,2092 247,756 261,688 291,551 389,426 518,362 l 76,-37 h 2915 2916 l 70,34 c 83,41 181,134 217,206 59,117 58,100 58,870 0,678 -1,711 -20,775 -47,158 -166,276 -329,324 -50,15 -312,16 -2915,15 -1574,-1 -2872,-4 -2886,-6 z m 5739,-93 c 161,-27 280,-144 311,-309 8,-38 10,-280 8,-747 l -3,-690 -38,-76 C 6591,534 6526,473 6435,436 l -65,-26 H 3510 650 l -64,26 c -114,45 -192,131 -228,249 -17,56 -18,110 -18,751 0,667 1,693 20,750 49,143 157,240 292,263 78,13 5627,13 5707,1 z" />
    <path
       inkscape:connector-curvature="0"
       id="path4966"
       d="m 3590,2267 c -3,-3 -86,-10 -185,-16 -99,-7 -207,-16 -240,-21 -33,-5 -109,-11 -170,-15 -60,-3 -144,-10 -185,-15 -41,-5 -110,-12 -152,-16 -43,-3 -78,-9 -78,-13 0,-24 23,-146 35,-191 28,-99 47,-165 56,-186 8,-21 13,-20 206,57 109,44 207,84 218,89 11,5 72,30 135,55 63,25 124,50 135,55 58,27 248,100 261,100 22,0 25,20 10,70 -11,39 -32,60 -46,47 z" />
    <path
       inkscape:connector-curvature="0"
       id="path4968"
       d="m 3555,1989 c -153,-63 -145,-60 -310,-125 -77,-31 -158,-64 -180,-74 -22,-10 -106,-44 -187,-76 -82,-32 -148,-62 -148,-66 0,-32 192,-348 212,-348 5,0 35,22 66,48 69,58 280,230 457,372 72,58 158,128 191,156 34,28 70,56 80,62 18,10 18,12 -6,56 -13,25 -31,46 -40,45 -8,0 -69,-23 -135,-50 z" />
    <path
       inkscape:connector-curvature="0"
       id="path4970"
       d="m 3690,1739 c -116,-95 -304,-247 -597,-483 l -74,-60 78,-79 c 43,-43 111,-106 152,-138 71,-58 75,-60 91,-42 15,15 172,246 492,724 43,64 78,120 78,125 0,11 -65,64 -77,64 -4,-1 -69,-51 -143,-111 z" />
    <path
       inkscape:connector-curvature="0"
       id="path4972"
       d="m 3979,1653 c -51,-79 -444,-661 -501,-743 -21,-30 -38,-58 -38,-62 0,-9 148,-89 230,-123 36,-15 80,-34 99,-42 18,-8 36,-11 41,-6 4,4 17,42 30,83 12,41 28,93 35,115 8,22 23,74 35,115 12,41 28,93 35,115 8,22 26,81 41,130 29,97 67,221 108,353 27,87 27,102 -3,102 -9,0 -26,7 -37,15 -10,8 -22,15 -25,15 -4,0 -26,-30 -50,-67 z" />
    <path
       inkscape:connector-curvature="0"
       id="path4974"
       d="m 4235,1627 c -2,-6 -18,-61 -36,-122 -17,-60 -39,-137 -49,-170 -67,-223 -83,-272 -90,-290 -5,-11 -16,-45 -24,-75 -8,-30 -32,-111 -54,-180 -22,-69 -41,-131 -43,-139 -6,-20 104,-47 254,-63 70,-8 130,-12 132,-9 3,2 5,238 5,523 0,406 -3,519 -12,522 -42,13 -79,15 -83,3 z" />
  </g>
</g>
<g
   transform="matrix(3.78,0,0,3.78,-27.060002,40.860006)"
   id="dataToSend"
   inkscape:groupmode="layer">
  <g
     transform="translate(4.64,-116)"
     id="layer1"
     inkscape:label="Calque 1"
     style="filter:url(#filter3204)">
    <g
       inkscape:label="#dataToSend"
       transform="translate(93.93,106.6)"
       id="g147">
      <path
         inkscape:connector-curvature="0"
         id="path3840"
         d="m -24.3,25.71 c -0.22,-2.32 -1.34,-4.55 -3.09,-6.09 -0.61,-0.5 -1.5,0.21 -1.28,0.92 0.14,0.67 0.82,0.98 1.18,1.52 1.99,2.49 2.11,6.27 0.29,8.89 -0.28,0.49 -0.89,0.85 -0.81,1.49 -0.02,0.74 0.96,1.13 1.44,0.54 1.74,-1.96 2.54,-4.67 2.27,-7.27 z"
         style="display:inline;fill:#ff0000;stroke:none;stroke-width:0.002" />
      <path
         inkscape:connector-curvature="0"
         id="path3842"
         d="m -27.3,26.07 c -0.15,-1.52 -1,-2.91 -2.16,-3.87 -0.63,-0.43 -1.48,0.21 -1.38,0.92 0.03,0.73 0.78,1.04 1.11,1.61 1.02,1.35 0.79,3.39 -0.39,4.56 -0.51,0.55 -0.28,1.69 0.54,1.75 0.65,0.05 0.98,-0.58 1.31,-1.02 0.79,-1.14 1.14,-2.58 0.97,-3.95 z"
         style="display:inline;fill:#ff0000;stroke:none;stroke-width:0.002" />
      <path
         inkscape:connector-curvature="0"
         id="path3844"
         d="m -30.73,26.29 c -0.13,-0.86 -1.13,-1.56 -1.96,-1.14 -1.14,0.5 -1.2,2.36 -0.09,2.93 0.7,0.41 1.65,0.03 1.93,-0.72 0.14,-0.33 0.18,-0.71 0.12,-1.07 z"
         style="display:inline;fill:#ff0000;stroke:none;stroke-width:0.002" />
    </g>
  </g>
</g>
<rect
   style="opacity:0.919;fill:#999999"
   id="cacheButton"
   width="245"
   height="60"
   x="10"
   y="165"
   ry="3.80955" />
<path
   style="opacity:0;fill:#483e37;fill-opacity:1;stroke:#000000;stroke-width:1px;stroke-linecap:butt;stroke-linejoin:miter;stroke-opacity:1"
   d="m 210,105.00001 30,-30.000008 20,30.000008 -15,30 z"
   id="dataToSendButton"
   inkscape:connector-curvature="0">
  <desc
     id="desc3186">0% Opacite</desc>
</path>
</svg>
